<mxfile host="app.diagrams.net" modified="2023-08-28T17:53:52.947Z" agent="Mozilla/5.0 (Windows NT 10.0; Win64; x64) AppleWebKit/537.36 (KHTML, like Gecko) Chrome/116.0.0.0 Safari/537.36" etag="H6sX7s5sBj0wqzr7yvMi" version="21.6.9" type="device">
  <diagram name="Página-1" id="Fl7Y9rt2XQGU6Q8YkaW1">
    <mxGraphModel dx="1434" dy="758" grid="1" gridSize="10" guides="1" tooltips="1" connect="1" arrows="1" fold="1" page="1" pageScale="1" pageWidth="827" pageHeight="1169" math="0" shadow="0">
      <root>
        <mxCell id="0" />
        <mxCell id="1" parent="0" />
        <mxCell id="3CR_INoyOTU6Y41YDeDa-1" value="&lt;h1&gt;&lt;b style=&quot;color: rgb(32, 33, 36); font-family: docs-Roboto; font-size: 16px;&quot;&gt;Contextualização&lt;/b&gt;&lt;span style=&quot;background-color: rgb(241, 243, 244); color: rgb(32, 33, 36); font-family: docs-Roboto; font-size: 16px; font-weight: normal;&quot;&gt;: Conforme dados na imagem anexa crie um programa em C.&lt;/span&gt;&lt;br&gt;&lt;/h1&gt;&lt;div style=&quot;color: rgb(32, 33, 36); font-family: docs-Roboto; font-size: 16px; background-color: rgb(241, 243, 244);&quot;&gt;&lt;b&gt;Desafio:&lt;/b&gt;&lt;/div&gt;&lt;p&gt;Crie um programa que solicite ao usuário como&amp;nbsp;&lt;b style=&quot;color: rgb(32, 33, 36); font-family: docs-Roboto; font-size: 16px; background-color: rgb(241, 243, 244);&quot;&gt;entrada&lt;/b&gt;&lt;span style=&quot;color: rgb(32, 33, 36); font-family: docs-Roboto; font-size: 16px; background-color: rgb(241, 243, 244);&quot;&gt;&amp;nbsp;a o número total de doadores, em seguida peça os nomes, idade, sexo &#39;M&#39; ou &#39;F&#39; e o número de dias desde a última doação de sangue.&lt;/span&gt;&lt;/p&gt;&lt;div style=&quot;color: rgb(32, 33, 36); font-family: docs-Roboto; font-size: 16px; background-color: rgb(241, 243, 244);&quot;&gt;O programa deve ter como&amp;nbsp;&lt;b&gt;saída&lt;/b&gt;&amp;nbsp;a lista com os nomes e status &quot;apto&quot; ou &quot;inapto&quot; a doar sangue novamente.&lt;/div&gt;&lt;div style=&quot;color: rgb(32, 33, 36); font-family: docs-Roboto; font-size: 16px; background-color: rgb(241, 243, 244);&quot;&gt;Lembrando que o tempo mínimo entre as doações para homens é de 60 dias e mulheres 90 dias.&lt;/div&gt;&lt;div style=&quot;color: rgb(32, 33, 36); font-family: docs-Roboto; font-size: 16px; background-color: rgb(241, 243, 244);&quot;&gt;&lt;b&gt;Dados:&lt;/b&gt;&amp;nbsp;Segue também dados para teste&lt;/div&gt;&lt;div style=&quot;color: rgb(32, 33, 36); font-family: docs-Roboto; font-size: 16px; background-color: rgb(241, 243, 244);&quot;&gt;&lt;b&gt;Entrega:&amp;nbsp;&lt;/b&gt;Cole o código fonte no espaço.&lt;/div&gt;" style="text;html=1;strokeColor=none;fillColor=none;spacing=5;spacingTop=-20;whiteSpace=wrap;overflow=hidden;rounded=0;" vertex="1" parent="1">
          <mxGeometry x="30" y="80" width="330" height="400" as="geometry" />
        </mxCell>
        <mxCell id="3CR_INoyOTU6Y41YDeDa-7" style="edgeStyle=orthogonalEdgeStyle;rounded=0;orthogonalLoop=1;jettySize=auto;html=1;exitX=0.5;exitY=1;exitDx=0;exitDy=0;entryX=0.5;entryY=0;entryDx=0;entryDy=0;entryPerimeter=0;fillColor=#fff2cc;strokeColor=#000000;" edge="1" parent="1" source="3CR_INoyOTU6Y41YDeDa-4" target="3CR_INoyOTU6Y41YDeDa-6">
          <mxGeometry relative="1" as="geometry" />
        </mxCell>
        <mxCell id="3CR_INoyOTU6Y41YDeDa-9" style="edgeStyle=orthogonalEdgeStyle;rounded=0;orthogonalLoop=1;jettySize=auto;html=1;exitX=0.5;exitY=1;exitDx=0;exitDy=0;exitPerimeter=0;entryX=0.5;entryY=0;entryDx=0;entryDy=0;" edge="1" parent="1" source="3CR_INoyOTU6Y41YDeDa-2" target="3CR_INoyOTU6Y41YDeDa-4">
          <mxGeometry relative="1" as="geometry" />
        </mxCell>
        <mxCell id="3CR_INoyOTU6Y41YDeDa-2" value="Início" style="strokeWidth=2;html=1;shape=mxgraph.flowchart.start_1;whiteSpace=wrap;fillColor=#f8cecc;strokeColor=#b85450;" vertex="1" parent="1">
          <mxGeometry x="414" y="100" width="50" height="30" as="geometry" />
        </mxCell>
        <mxCell id="3CR_INoyOTU6Y41YDeDa-3" value="Fim" style="strokeWidth=2;html=1;shape=mxgraph.flowchart.start_1;whiteSpace=wrap;fillColor=#f8cecc;strokeColor=#b85450;" vertex="1" parent="1">
          <mxGeometry x="160" y="880" width="50" height="30" as="geometry" />
        </mxCell>
        <mxCell id="3CR_INoyOTU6Y41YDeDa-4" value="quantos,&lt;br&gt;i" style="rounded=1;whiteSpace=wrap;html=1;absoluteArcSize=1;arcSize=14;strokeWidth=2;fillColor=#fff2cc;strokeColor=#d6b656;" vertex="1" parent="1">
          <mxGeometry x="397.5" y="149.5" width="83" height="40" as="geometry" />
        </mxCell>
        <mxCell id="3CR_INoyOTU6Y41YDeDa-11" style="edgeStyle=orthogonalEdgeStyle;rounded=0;orthogonalLoop=1;jettySize=auto;html=1;exitX=0.5;exitY=1;exitDx=0;exitDy=0;entryX=0.5;entryY=0;entryDx=0;entryDy=0;fillColor=#fff2cc;strokeColor=#000000;" edge="1" parent="1" source="3CR_INoyOTU6Y41YDeDa-5" target="3CR_INoyOTU6Y41YDeDa-10">
          <mxGeometry relative="1" as="geometry" />
        </mxCell>
        <mxCell id="3CR_INoyOTU6Y41YDeDa-5" value="&lt;br&gt;quantos;" style="html=1;strokeWidth=2;shape=manualInput;whiteSpace=wrap;rounded=1;size=26;arcSize=11;fillColor=#fff2cc;strokeColor=#d6b656;" vertex="1" parent="1">
          <mxGeometry x="402" y="269.5" width="70" height="50" as="geometry" />
        </mxCell>
        <mxCell id="3CR_INoyOTU6Y41YDeDa-8" style="edgeStyle=orthogonalEdgeStyle;rounded=0;orthogonalLoop=1;jettySize=auto;html=1;exitX=0.5;exitY=1;exitDx=0;exitDy=0;exitPerimeter=0;entryX=0.536;entryY=0.275;entryDx=0;entryDy=0;entryPerimeter=0;fillColor=#fff2cc;strokeColor=#000000;" edge="1" parent="1" source="3CR_INoyOTU6Y41YDeDa-6" target="3CR_INoyOTU6Y41YDeDa-5">
          <mxGeometry relative="1" as="geometry" />
        </mxCell>
        <mxCell id="3CR_INoyOTU6Y41YDeDa-6" value="&quot;Digite quantos doadores:&quot;;" style="strokeWidth=2;html=1;shape=mxgraph.flowchart.display;whiteSpace=wrap;fillColor=#fff2cc;strokeColor=#d6b656;" vertex="1" parent="1">
          <mxGeometry x="379" y="209.5" width="116" height="50" as="geometry" />
        </mxCell>
        <mxCell id="3CR_INoyOTU6Y41YDeDa-13" style="edgeStyle=orthogonalEdgeStyle;rounded=0;orthogonalLoop=1;jettySize=auto;html=1;exitX=0.5;exitY=1;exitDx=0;exitDy=0;entryX=0.5;entryY=0;entryDx=0;entryDy=0;entryPerimeter=0;fillColor=#fff2cc;strokeColor=#000000;" edge="1" parent="1" source="3CR_INoyOTU6Y41YDeDa-10" target="3CR_INoyOTU6Y41YDeDa-15">
          <mxGeometry relative="1" as="geometry" />
        </mxCell>
        <mxCell id="3CR_INoyOTU6Y41YDeDa-10" value="nome[quantos],&lt;br&gt;idade[quantos],&lt;br&gt;sexo[quantos],&lt;br&gt;dias[quantos],&lt;br&gt;status[quantos],&lt;br&gt;i = 0;&lt;br&gt;" style="rounded=1;whiteSpace=wrap;html=1;absoluteArcSize=1;arcSize=14;strokeWidth=2;fillColor=#fff2cc;strokeColor=#d6b656;" vertex="1" parent="1">
          <mxGeometry x="390" y="339.5" width="98" height="90" as="geometry" />
        </mxCell>
        <mxCell id="3CR_INoyOTU6Y41YDeDa-16" value="Sim" style="edgeStyle=orthogonalEdgeStyle;rounded=0;orthogonalLoop=1;jettySize=auto;html=1;exitX=1;exitY=0.5;exitDx=0;exitDy=0;exitPerimeter=0;entryX=0;entryY=0.75;entryDx=0;entryDy=0;" edge="1" parent="1" source="3CR_INoyOTU6Y41YDeDa-12" target="3CR_INoyOTU6Y41YDeDa-14">
          <mxGeometry relative="1" as="geometry" />
        </mxCell>
        <mxCell id="3CR_INoyOTU6Y41YDeDa-35" value="Não" style="edgeStyle=orthogonalEdgeStyle;rounded=0;orthogonalLoop=1;jettySize=auto;html=1;exitX=0;exitY=0.5;exitDx=0;exitDy=0;exitPerimeter=0;entryX=1;entryY=0.5;entryDx=0;entryDy=0;entryPerimeter=0;" edge="1" parent="1" source="3CR_INoyOTU6Y41YDeDa-12" target="3CR_INoyOTU6Y41YDeDa-39">
          <mxGeometry relative="1" as="geometry" />
        </mxCell>
        <mxCell id="3CR_INoyOTU6Y41YDeDa-12" value="i &amp;lt; quantos" style="strokeWidth=2;html=1;shape=mxgraph.flowchart.decision;whiteSpace=wrap;fillColor=#ffe6cc;strokeColor=#d79b00;" vertex="1" parent="1">
          <mxGeometry x="390" y="540" width="80" height="50" as="geometry" />
        </mxCell>
        <mxCell id="3CR_INoyOTU6Y41YDeDa-19" style="edgeStyle=orthogonalEdgeStyle;rounded=0;orthogonalLoop=1;jettySize=auto;html=1;exitX=1;exitY=0.5;exitDx=0;exitDy=0;entryX=0.5;entryY=0;entryDx=0;entryDy=0;entryPerimeter=0;" edge="1" parent="1" source="3CR_INoyOTU6Y41YDeDa-14" target="3CR_INoyOTU6Y41YDeDa-18">
          <mxGeometry relative="1" as="geometry" />
        </mxCell>
        <mxCell id="3CR_INoyOTU6Y41YDeDa-14" value="&lt;br&gt;nome[i],&lt;br&gt;idade[i],&lt;br&gt;sexo[i],&lt;br&gt;dias[i]" style="html=1;strokeWidth=2;shape=manualInput;whiteSpace=wrap;rounded=1;size=26;arcSize=11;fillColor=#fff2cc;strokeColor=#d6b656;" vertex="1" parent="1">
          <mxGeometry x="535" y="500.5" width="90" height="85" as="geometry" />
        </mxCell>
        <mxCell id="3CR_INoyOTU6Y41YDeDa-17" style="edgeStyle=orthogonalEdgeStyle;rounded=0;orthogonalLoop=1;jettySize=auto;html=1;exitX=0.5;exitY=1;exitDx=0;exitDy=0;exitPerimeter=0;entryX=0.5;entryY=0;entryDx=0;entryDy=0;entryPerimeter=0;" edge="1" parent="1" source="3CR_INoyOTU6Y41YDeDa-15" target="3CR_INoyOTU6Y41YDeDa-12">
          <mxGeometry relative="1" as="geometry" />
        </mxCell>
        <mxCell id="3CR_INoyOTU6Y41YDeDa-15" value="&quot;Digite&lt;br&gt;nome, idade, sexo &#39;M&#39; ou &#39;F&#39;, Dias desde a última doação:&quot;;" style="strokeWidth=2;html=1;shape=mxgraph.flowchart.display;whiteSpace=wrap;fillColor=#fff2cc;strokeColor=#d6b656;" vertex="1" parent="1">
          <mxGeometry x="355" y="449.5" width="150" height="70" as="geometry" />
        </mxCell>
        <mxCell id="3CR_INoyOTU6Y41YDeDa-23" value="Não" style="edgeStyle=orthogonalEdgeStyle;rounded=0;orthogonalLoop=1;jettySize=auto;html=1;exitX=0.5;exitY=1;exitDx=0;exitDy=0;exitPerimeter=0;entryX=0.5;entryY=0;entryDx=0;entryDy=0;entryPerimeter=0;" edge="1" parent="1" source="3CR_INoyOTU6Y41YDeDa-18" target="3CR_INoyOTU6Y41YDeDa-22">
          <mxGeometry relative="1" as="geometry" />
        </mxCell>
        <mxCell id="3CR_INoyOTU6Y41YDeDa-24" value="Sim" style="edgeStyle=orthogonalEdgeStyle;rounded=0;orthogonalLoop=1;jettySize=auto;html=1;exitX=0;exitY=0.5;exitDx=0;exitDy=0;exitPerimeter=0;entryX=0.5;entryY=0;entryDx=0;entryDy=0;" edge="1" parent="1" source="3CR_INoyOTU6Y41YDeDa-18" target="3CR_INoyOTU6Y41YDeDa-21">
          <mxGeometry relative="1" as="geometry" />
        </mxCell>
        <mxCell id="3CR_INoyOTU6Y41YDeDa-18" value="sexo[i] == &#39;F&#39; &amp;amp;&amp;amp;&lt;br&gt;idade[i] &amp;gt;= 16 &amp;amp;&amp;amp;&lt;br&gt;idade[i] &amp;lt;= 69 &amp;amp;&amp;amp;&lt;br&gt;dias &amp;gt; 90" style="strokeWidth=2;html=1;shape=mxgraph.flowchart.decision;whiteSpace=wrap;fillColor=#ffe6cc;strokeColor=#d79b00;" vertex="1" parent="1">
          <mxGeometry x="600" y="595.5" width="160" height="104.5" as="geometry" />
        </mxCell>
        <mxCell id="3CR_INoyOTU6Y41YDeDa-27" style="edgeStyle=orthogonalEdgeStyle;rounded=0;orthogonalLoop=1;jettySize=auto;html=1;exitX=0;exitY=0.5;exitDx=0;exitDy=0;entryX=1;entryY=0.5;entryDx=0;entryDy=0;" edge="1" parent="1" source="3CR_INoyOTU6Y41YDeDa-21" target="3CR_INoyOTU6Y41YDeDa-28">
          <mxGeometry relative="1" as="geometry">
            <mxPoint x="519.9999999999998" y="609.7586206896551" as="targetPoint" />
          </mxGeometry>
        </mxCell>
        <mxCell id="3CR_INoyOTU6Y41YDeDa-21" value="status[i] = &quot;Apto&quot;;" style="rounded=1;whiteSpace=wrap;html=1;absoluteArcSize=1;arcSize=14;strokeWidth=2;fillColor=#fff2cc;strokeColor=#d6b656;" vertex="1" parent="1">
          <mxGeometry x="510" y="710" width="100" height="40" as="geometry" />
        </mxCell>
        <mxCell id="3CR_INoyOTU6Y41YDeDa-26" value="Sim" style="edgeStyle=orthogonalEdgeStyle;rounded=0;orthogonalLoop=1;jettySize=auto;html=1;exitX=0;exitY=0.5;exitDx=0;exitDy=0;exitPerimeter=0;entryX=0.5;entryY=1;entryDx=0;entryDy=0;" edge="1" parent="1" source="3CR_INoyOTU6Y41YDeDa-22" target="3CR_INoyOTU6Y41YDeDa-21">
          <mxGeometry relative="1" as="geometry" />
        </mxCell>
        <mxCell id="3CR_INoyOTU6Y41YDeDa-31" value="Não" style="edgeStyle=orthogonalEdgeStyle;rounded=0;orthogonalLoop=1;jettySize=auto;html=1;exitX=0.5;exitY=1;exitDx=0;exitDy=0;exitPerimeter=0;entryX=1;entryY=0.5;entryDx=0;entryDy=0;" edge="1" parent="1" source="3CR_INoyOTU6Y41YDeDa-22" target="3CR_INoyOTU6Y41YDeDa-29">
          <mxGeometry relative="1" as="geometry" />
        </mxCell>
        <mxCell id="3CR_INoyOTU6Y41YDeDa-22" value="sexo[i] == &#39;F&#39; &amp;amp;&amp;amp;&lt;br&gt;idade[i] &amp;gt;= 16 &amp;amp;&amp;amp;&lt;br&gt;idade[i] &amp;lt;= 69 &amp;amp;&amp;amp;&lt;br&gt;dias &amp;gt; 90" style="strokeWidth=2;html=1;shape=mxgraph.flowchart.decision;whiteSpace=wrap;fillColor=#ffe6cc;strokeColor=#d79b00;" vertex="1" parent="1">
          <mxGeometry x="600" y="728.25" width="160" height="94.5" as="geometry" />
        </mxCell>
        <mxCell id="3CR_INoyOTU6Y41YDeDa-33" style="edgeStyle=orthogonalEdgeStyle;rounded=0;orthogonalLoop=1;jettySize=auto;html=1;entryX=0.5;entryY=1;entryDx=0;entryDy=0;entryPerimeter=0;exitX=0.5;exitY=0;exitDx=0;exitDy=0;" edge="1" parent="1" source="3CR_INoyOTU6Y41YDeDa-28" target="3CR_INoyOTU6Y41YDeDa-12">
          <mxGeometry relative="1" as="geometry">
            <mxPoint x="430" y="640" as="sourcePoint" />
          </mxGeometry>
        </mxCell>
        <mxCell id="3CR_INoyOTU6Y41YDeDa-28" value="i++;" style="rounded=1;whiteSpace=wrap;html=1;absoluteArcSize=1;arcSize=14;strokeWidth=2;fillColor=#fff2cc;strokeColor=#d6b656;" vertex="1" parent="1">
          <mxGeometry x="400" y="720" width="60" height="20" as="geometry" />
        </mxCell>
        <mxCell id="3CR_INoyOTU6Y41YDeDa-32" style="edgeStyle=orthogonalEdgeStyle;rounded=0;orthogonalLoop=1;jettySize=auto;html=1;exitX=0;exitY=0.5;exitDx=0;exitDy=0;entryX=0.5;entryY=1;entryDx=0;entryDy=0;" edge="1" parent="1" source="3CR_INoyOTU6Y41YDeDa-29" target="3CR_INoyOTU6Y41YDeDa-28">
          <mxGeometry relative="1" as="geometry" />
        </mxCell>
        <mxCell id="3CR_INoyOTU6Y41YDeDa-29" value="status[i] = &quot;Inapto&quot;;" style="rounded=1;whiteSpace=wrap;html=1;absoluteArcSize=1;arcSize=14;strokeWidth=2;fillColor=#fff2cc;strokeColor=#d6b656;" vertex="1" parent="1">
          <mxGeometry x="505" y="822.75" width="120" height="40" as="geometry" />
        </mxCell>
        <mxCell id="3CR_INoyOTU6Y41YDeDa-37" style="edgeStyle=orthogonalEdgeStyle;rounded=0;orthogonalLoop=1;jettySize=auto;html=1;exitX=0.5;exitY=1;exitDx=0;exitDy=0;entryX=0.5;entryY=0;entryDx=0;entryDy=0;entryPerimeter=0;" edge="1" parent="1" source="3CR_INoyOTU6Y41YDeDa-34" target="3CR_INoyOTU6Y41YDeDa-36">
          <mxGeometry relative="1" as="geometry" />
        </mxCell>
        <mxCell id="3CR_INoyOTU6Y41YDeDa-34" value="i = 0;" style="rounded=1;whiteSpace=wrap;html=1;absoluteArcSize=1;arcSize=14;strokeWidth=2;fillColor=#fff2cc;strokeColor=#d6b656;" vertex="1" parent="1">
          <mxGeometry x="225" y="610" width="60" height="20" as="geometry" />
        </mxCell>
        <mxCell id="3CR_INoyOTU6Y41YDeDa-42" value="Sim" style="edgeStyle=orthogonalEdgeStyle;rounded=0;orthogonalLoop=1;jettySize=auto;html=1;exitX=0.5;exitY=1;exitDx=0;exitDy=0;exitPerimeter=0;entryX=0.5;entryY=0;entryDx=0;entryDy=0;entryPerimeter=0;" edge="1" parent="1" source="3CR_INoyOTU6Y41YDeDa-36" target="3CR_INoyOTU6Y41YDeDa-41">
          <mxGeometry relative="1" as="geometry" />
        </mxCell>
        <mxCell id="3CR_INoyOTU6Y41YDeDa-45" value="Não" style="edgeStyle=orthogonalEdgeStyle;rounded=0;orthogonalLoop=1;jettySize=auto;html=1;exitX=0;exitY=0.5;exitDx=0;exitDy=0;exitPerimeter=0;entryX=0.5;entryY=0;entryDx=0;entryDy=0;entryPerimeter=0;" edge="1" parent="1" source="3CR_INoyOTU6Y41YDeDa-36" target="3CR_INoyOTU6Y41YDeDa-3">
          <mxGeometry relative="1" as="geometry" />
        </mxCell>
        <mxCell id="3CR_INoyOTU6Y41YDeDa-36" value="i &amp;lt; quantos" style="strokeWidth=2;html=1;shape=mxgraph.flowchart.decision;whiteSpace=wrap;fillColor=#ffe6cc;strokeColor=#d79b00;" vertex="1" parent="1">
          <mxGeometry x="215" y="650" width="80" height="50" as="geometry" />
        </mxCell>
        <mxCell id="3CR_INoyOTU6Y41YDeDa-44" style="edgeStyle=orthogonalEdgeStyle;rounded=0;orthogonalLoop=1;jettySize=auto;html=1;exitX=0.5;exitY=0;exitDx=0;exitDy=0;entryX=1;entryY=0.5;entryDx=0;entryDy=0;entryPerimeter=0;" edge="1" parent="1" source="3CR_INoyOTU6Y41YDeDa-38" target="3CR_INoyOTU6Y41YDeDa-36">
          <mxGeometry relative="1" as="geometry" />
        </mxCell>
        <mxCell id="3CR_INoyOTU6Y41YDeDa-38" value="i++;" style="rounded=1;whiteSpace=wrap;html=1;absoluteArcSize=1;arcSize=14;strokeWidth=2;fillColor=#fff2cc;strokeColor=#d6b656;" vertex="1" parent="1">
          <mxGeometry x="330" y="700" width="60" height="20" as="geometry" />
        </mxCell>
        <mxCell id="3CR_INoyOTU6Y41YDeDa-40" style="edgeStyle=orthogonalEdgeStyle;rounded=0;orthogonalLoop=1;jettySize=auto;html=1;exitX=0.554;exitY=1.01;exitDx=0;exitDy=0;exitPerimeter=0;entryX=0.5;entryY=0;entryDx=0;entryDy=0;" edge="1" parent="1" source="3CR_INoyOTU6Y41YDeDa-39" target="3CR_INoyOTU6Y41YDeDa-34">
          <mxGeometry relative="1" as="geometry" />
        </mxCell>
        <mxCell id="3CR_INoyOTU6Y41YDeDa-39" value="&quot;Nome Status&quot;;" style="strokeWidth=2;html=1;shape=mxgraph.flowchart.display;whiteSpace=wrap;fillColor=#fff2cc;strokeColor=#d6b656;" vertex="1" parent="1">
          <mxGeometry x="200" y="547.5" width="106" height="35" as="geometry" />
        </mxCell>
        <mxCell id="3CR_INoyOTU6Y41YDeDa-43" style="edgeStyle=orthogonalEdgeStyle;rounded=0;orthogonalLoop=1;jettySize=auto;html=1;exitX=0.5;exitY=1;exitDx=0;exitDy=0;exitPerimeter=0;entryX=0.5;entryY=1;entryDx=0;entryDy=0;" edge="1" parent="1" source="3CR_INoyOTU6Y41YDeDa-41" target="3CR_INoyOTU6Y41YDeDa-38">
          <mxGeometry relative="1" as="geometry" />
        </mxCell>
        <mxCell id="3CR_INoyOTU6Y41YDeDa-41" value="nome[i], status[i]" style="strokeWidth=2;html=1;shape=mxgraph.flowchart.display;whiteSpace=wrap;fillColor=#fff2cc;strokeColor=#d6b656;" vertex="1" parent="1">
          <mxGeometry x="202" y="758" width="106" height="35" as="geometry" />
        </mxCell>
        <mxCell id="3CR_INoyOTU6Y41YDeDa-46" value="&lt;h1&gt;Fluxograma Situação 01: Doação de Sangue&lt;/h1&gt;" style="text;html=1;strokeColor=none;fillColor=none;spacing=5;spacingTop=-20;whiteSpace=wrap;overflow=hidden;rounded=0;" vertex="1" parent="1">
          <mxGeometry x="170" y="40" width="540" height="40" as="geometry" />
        </mxCell>
      </root>
    </mxGraphModel>
  </diagram>
</mxfile>
